<svg width="15" height="11" viewBox="0 0 15 11" fill="none" xmlns="http://www.w3.org/2000/svg">
<path d="M10.125 5.45703C10.125 6.03719 9.89453 6.59359 9.4843 7.00383C9.07406 7.41406 8.51766 7.64453 7.9375 7.64453C7.35734 7.64453 6.80094 7.41406 6.3907 7.00383C5.98047 6.59359 5.75 6.03719 5.75 5.45703C5.75 4.87687 5.98047 4.32047 6.3907 3.91024C6.80094 3.5 7.35734 3.26953 7.9375 3.26953C8.51766 3.26953 9.07406 3.5 9.4843 3.91024C9.89453 4.32047 10.125 4.87687 10.125 5.45703Z" fill="white"/>
<path d="M0.9375 5.45703C0.9375 5.45703 3.5625 0.644531 7.9375 0.644531C12.3125 0.644531 14.9375 5.45703 14.9375 5.45703C14.9375 5.45703 12.3125 10.2695 7.9375 10.2695C3.5625 10.2695 0.9375 5.45703 0.9375 5.45703ZM7.9375 8.51953C8.74973 8.51953 9.52868 8.19688 10.103 7.62255C10.6773 7.04822 11 6.26926 11 5.45703C11 4.64481 10.6773 3.86585 10.103 3.29152C9.52868 2.71719 8.74973 2.39453 7.9375 2.39453C7.12527 2.39453 6.34632 2.71719 5.77199 3.29152C5.19766 3.86585 4.875 4.64481 4.875 5.45703C4.875 6.26926 5.19766 7.04822 5.77199 7.62255C6.34632 8.19688 7.12527 8.51953 7.9375 8.51953Z" fill="white"/>
</svg>
