<svg width="11" height="7" viewBox="0 0 11 7" fill="none" xmlns="http://www.w3.org/2000/svg">
<path fill-rule="evenodd" clip-rule="evenodd" d="M0.9375 3.45672C0.9375 3.362 0.975124 3.27117 1.0421 3.2042C1.10907 3.13722 1.19991 3.0996 1.29462 3.0996H9.71765L7.46994 0.8526C7.43674 0.819396 7.4104 0.779978 7.39243 0.736595C7.37446 0.693213 7.36521 0.646716 7.36521 0.599759C7.36521 0.552802 7.37446 0.506305 7.39243 0.462922C7.4104 0.41954 7.43674 0.380121 7.46994 0.346918C7.50314 0.313714 7.54256 0.287376 7.58594 0.269406C7.62933 0.251436 7.67582 0.242187 7.72278 0.242188C7.76974 0.242188 7.81624 0.251436 7.85962 0.269406C7.903 0.287376 7.94242 0.313714 7.97562 0.346918L10.8326 3.20388C10.8658 3.23705 10.8922 3.27646 10.9102 3.31985C10.9282 3.36323 10.9375 3.40975 10.9375 3.45672C10.9375 3.50369 10.9282 3.5502 10.9102 3.59359C10.8922 3.63698 10.8658 3.67639 10.8326 3.70956L7.97562 6.56652C7.94242 6.59972 7.903 6.62606 7.85962 6.64403C7.81624 6.662 7.76974 6.67125 7.72278 6.67125C7.67582 6.67125 7.62933 6.662 7.58594 6.64403C7.54256 6.62606 7.50314 6.59972 7.46994 6.56652C7.43674 6.53332 7.4104 6.4939 7.39243 6.45052C7.37446 6.40713 7.36521 6.36064 7.36521 6.31368C7.36521 6.26672 7.37446 6.22023 7.39243 6.17684C7.4104 6.13346 7.43674 6.09404 7.46994 6.06084L9.71765 3.81384H1.29462C1.19991 3.81384 1.10907 3.77621 1.0421 3.70924C0.975124 3.64227 0.9375 3.55143 0.9375 3.45672Z" fill="white"/>
</svg>
