<svg width="18" height="18" viewBox="0 0 18 18" fill="none" xmlns="http://www.w3.org/2000/svg">
<path d="M13.168 2.49992H16.5013C16.7223 2.49992 16.9343 2.58772 17.0906 2.744C17.2468 2.90028 17.3346 3.11224 17.3346 3.33325V16.6666C17.3346 16.8876 17.2468 17.0996 17.0906 17.2558C16.9343 17.4121 16.7223 17.4999 16.5013 17.4999H1.5013C1.28029 17.4999 1.06833 17.4121 0.912046 17.2558C0.755766 17.0996 0.667969 16.8876 0.667969 16.6666V3.33325C0.667969 3.11224 0.755766 2.90028 0.912046 2.744C1.06833 2.58772 1.28029 2.49992 1.5013 2.49992H4.83464V0.833252H6.5013V2.49992H11.5013V0.833252H13.168V2.49992ZM11.5013 4.16659H6.5013V5.83325H4.83464V4.16659H2.33464V7.49992H15.668V4.16659H13.168V5.83325H11.5013V4.16659ZM15.668 9.16658H2.33464V15.8333H15.668V9.16658ZM4.0013 11.6666H5.66797V13.3333H4.0013V11.6666ZM7.33464 11.6666H14.0013V13.3333H7.33464V11.6666Z" fill="white"/>
</svg>
